<svg width="24" height="24" viewBox="0 0 24 24" fill="none" xmlns="http://www.w3.org/2000/svg">
  <circle cx="12" cy="12" r="3" stroke="currentColor" stroke-width="2"/>
  <path d="M19.4 15C19.1 15.3 19.1 15.7 19.4 16L20.4 17C20.7 17.3 20.7 17.8 20.4 18.1L18.1 20.4C17.8 20.7 17.3 20.7 17 20.4L16 19.4C15.7 19.1 15.3 19.1 15 19.4C14.6 19.6 14.1 19.8 13.6 19.9C13.2 20 12.9 20.3 12.9 20.7V22C12.9 22.6 12.4 23 11.8 23H9.2C8.6 23 8.1 22.6 8.1 22V20.7C8.1 20.3 7.8 20 7.4 19.9C6.9 19.8 6.4 19.6 6 19.4C5.7 19.1 5.3 19.1 5 19.4L4 20.4C3.7 20.7 3.2 20.7 2.9 20.4L0.6 18.1C0.3 17.8 0.3 17.3 0.6 17L1.6 16C1.9 15.7 1.9 15.3 1.6 15C1.4 14.6 1.2 14.1 1.1 13.6C1 13.2 0.7 12.9 0.3 12.9H-1C-1.6 12.9 -2 12.4 -2 11.8V9.2C-2 8.6 -1.6 8.1 -1 8.1H0.3C0.7 8.1 1 7.8 1.1 7.4C1.2 6.9 1.4 6.4 1.6 6C1.9 5.7 1.9 5.3 1.6 5L0.6 4C0.3 3.7 0.3 3.2 0.6 2.9L2.9 0.6C3.2 0.3 3.7 0.3 4 0.6L5 1.6C5.3 1.9 5.7 1.9 6 1.6C6.4 1.4 6.9 1.2 7.4 1.1C7.8 1 8.1 0.7 8.1 0.3V-1C8.1 -1.6 8.6 -2 9.2 -2H11.8C12.4 -2 12.9 -1.6 12.9 -1V0.3C12.9 0.7 13.2 1 13.6 1.1C14.1 1.2 14.6 1.4 15 1.6C15.3 1.9 15.7 1.9 16 1.6L17 0.6C17.3 0.3 17.8 0.3 18.1 0.6L20.4 2.9C20.7 3.2 20.7 3.7 20.4 4L19.4 5C19.1 5.3 19.1 5.7 19.4 6C19.6 6.4 19.8 6.9 19.9 7.4C20 7.8 20.3 8.1 20.7 8.1H22C22.6 8.1 23 8.6 23 9.2V11.8C23 12.4 22.6 12.9 22 12.9H20.7C20.3 12.9 20 13.2 19.9 13.6C19.8 14.1 19.6 14.6 19.4 15Z" stroke="currentColor" stroke-width="2"/>
</svg>